<?xml version="1.0" standalone="no"?>
<!DOCTYPE svg PUBLIC "-//W3C//DTD SVG 20010904//EN"
 "http://www.w3.org/TR/2001/REC-SVG-20010904/DTD/svg10.dtd">
<svg version="1.0" xmlns="http://www.w3.org/2000/svg"
 width="225.000000pt" height="225.000000pt" viewBox="0 0 225.000000 225.000000"
 preserveAspectRatio="xMidYMid meet">

<g transform="translate(0.000000,225.000000) scale(0.100000,-0.100000)"
fill="#fff" stroke="none">
<path d="M990 2240 c-450 -58 -820 -373 -945 -804 -109 -380 -9 -792 262
-1077 227 -238 490 -352 818 -352 306 0 553 97 769 303 453 430 475 1133 49
1581 -167 176 -362 285 -594 334 -88 19 -273 26 -359 15z m365 -159 c504 -124
829 -616 740 -1124 -21 -120 -68 -242 -131 -343 -62 -99 -154 -209 -164 -197
-4 4 -12 35 -19 68 -7 33 -31 98 -53 144 -54 113 -177 239 -289 296 l-77 39
38 27 c120 87 192 263 171 414 -32 219 -198 378 -410 392 -269 19 -481 -178
-483 -448 0 -42 7 -101 16 -131 25 -87 100 -191 173 -239 20 -14 18 -16 -55
-54 -113 -57 -236 -182 -290 -296 -23 -46 -47 -114 -54 -152 -7 -37 -16 -67
-19 -67 -14 0 -111 121 -163 204 -183 291 -194 675 -28 976 157 286 420 464
757 514 64 9 262 -4 340 -23z m-80 -430 c70 -35 121 -87 157 -160 19 -38 23
-62 23 -146 0 -92 -2 -104 -30 -153 -133 -242 -468 -242 -600 -1 -37 69 -47
189 -21 265 66 196 285 286 471 195z m40 -789 c201 -73 349 -264 371 -477 l7
-64 -57 -36 c-77 -49 -178 -91 -283 -117 -124 -31 -332 -31 -453 -1 -106 27
-211 70 -285 118 l-58 36 7 65 c22 218 168 401 380 476 75 27 90 28 196 25 87
-2 130 -9 175 -25z"/>
</g>
</svg>
