<?xml version="1.0" standalone="no"?>
<!DOCTYPE svg PUBLIC "-//W3C//DTD SVG 20010904//EN"
 "http://www.w3.org/TR/2001/REC-SVG-20010904/DTD/svg10.dtd">
<svg version="1.0" xmlns="http://www.w3.org/2000/svg"
 width="512.000000pt" height="512.000000pt" viewBox="0 0 512.000000 512.000000"
 preserveAspectRatio="xMidYMid meet">

<g transform="translate(0.000000,512.000000) scale(0.100000,-0.100000)"
fill="#fff" stroke="none">
<path d="M2103 4955 c-318 -58 -583 -280 -692 -581 -43 -119 -55 -202 -48
-350 6 -150 28 -237 89 -360 115 -233 340 -413 593 -475 114 -28 305 -31 407
-6 372 91 639 375 699 741 15 94 7 276 -16 366 -26 100 -105 256 -172 340
-203 255 -542 383 -860 325z m272 -300 c114 -22 216 -76 301 -160 118 -117
172 -234 181 -395 16 -284 -163 -534 -442 -616 -40 -12 -93 -17 -160 -17 -84
0 -113 5 -185 30 -104 36 -182 85 -252 162 -211 227 -211 584 -1 812 149 161
344 225 558 184z"/>
<path d="M2020 2999 c-524 -60 -1032 -333 -1372 -738 -319 -381 -491 -841
-492 -1321 -1 -187 10 -246 70 -368 72 -148 187 -263 339 -337 175 -87 17 -80
1743 -83 1703 -3 1634 -5 1842 64 351 117 637 403 754 753 63 191 80 373 52
561 -74 489 -424 873 -910 997 -89 23 -123 26 -291 28 l-190 1 -85 62 c-274
198 -615 332 -958 376 -132 17 -374 19 -502 5z m430 -299 c254 -31 512 -117
728 -242 l43 -25 -88 -56 c-174 -110 -309 -247 -406 -412 -195 -331 -218 -725
-66 -1092 40 -95 150 -260 233 -348 36 -38 66 -71 66 -72 0 -9 -2095 -1 -2141
7 -180 34 -327 180 -360 355 -21 112 5 373 57 565 111 413 385 788 753 1034
225 150 547 264 816 289 89 8 286 6 365 -3z m1531 -469 c270 -70 479 -241 599
-492 64 -136 83 -220 83 -384 0 -170 -19 -252 -92 -400 -114 -231 -333 -409
-586 -477 -114 -30 -327 -30 -440 1 -603 162 -874 854 -535 1368 137 208 352
351 598 398 100 19 272 13 373 -14z"/>
<path d="M3722 1953 c-35 -7 -89 -64 -101 -108 -6 -22 -11 -106 -11 -187 l0
-146 -167 -4 c-136 -2 -174 -6 -200 -20 -105 -58 -105 -208 0 -266 26 -14 64
-18 199 -20 l166 -4 4 -166 c4 -186 12 -216 71 -252 53 -33 91 -35 144 -9 79
39 87 64 91 261 l4 166 166 4 c197 4 222 12 261 91 26 53 24 91 -9 144 -36 59
-66 67 -252 71 l-166 4 -4 166 c-3 183 -11 211 -66 251 -30 21 -91 33 -130 24z"/>
</g>
</svg>
